[Header]
FileType HTR
DataType HTRS
FileVersion 1
NumSegments 22
NumFrames 4
DataFrameRate 24
EulerRotationOrder ZYX
CalibrationUnits mm
RotationUnits Degrees
GlobalAxisofGravity Y
BoneLengthAxis Y
ScaleFactor 1.0
[SegmentNames&Hierarchy]
reference	GLOBAL
Hips	reference
Spine	Hips
Spine1	Spine
Neck	Spine1
Head	Neck
LeftShoulder	Spine1
LeftArm	LeftShoulder
LeftForeArm	LeftArm
LeftHand	LeftForeArm
RightShoulder	Spine1
RightArm	RightShoulder
RightForeArm	RightArm
RightHand	RightForeArm
LeftUpLeg	Hips
LeftLeg	LeftUpLeg
LeftFoot	LeftLeg
LeftToeBase	LeftFoot
RightUpLeg	Hips
RightLeg	RightUpLeg
RightFoot	RightLeg
RightToeBase	RightFoot
[BasePosition]
reference	0	0	0	0	0	0	1
Hips	0	0	0	0	0	0	1
Spine	0	0	0	-0	-90	0	1
Spine1	0	0	0	0	0	0	1
Neck	0	0	0	82.64767223	-82.64767223	-90	1
Head	0	0	0	-0	-90	0	1
LeftShoulder	0	0	0	0	0	0	1
LeftArm	0	0	0	0	0	0	1
LeftForeArm	0	0	0	0	0	0	1
LeftHand	0	0	0	0	0	0	1
RightShoulder	0	0	0	0	-0	180	1
RightArm	0	0	0	0	-0	180	1
RightForeArm	0	0	0	0	-0	180	1
RightHand	0	0	0	0	-0	180	1
LeftUpLeg	0	0	0	-0	90	0	1
LeftLeg	0	0	0	-0	90	0	1
LeftFoot	0	0	0	-23.42853957	23.42853957	-90	1
LeftToeBase	0	0	0	0	-0	-90	1
RightUpLeg	0	0	0	-0	90	0	1
RightLeg	0	0	0	-0	90	0	1
RightFoot	0	0	0	-23.42853957	23.42853957	-90	1
RightToeBase	0	0	0	0	-0	-90	1
[reference]
19	0	0	0	0	-0	0	1.0
20	0	0	0	0	-0	0	1.0
21	0	0	0	0	-0	0	1.0
22	0	0	0	0	-0	0	1.0
[Hips]
19	4.856099606	-0.7594365478	10.91941452	16.16268539	1.690866709	-96.77449036	1.0
20	5.019507408	-0.7743759155	10.91711235	23.95800781	1.874898791	-97.87672424	1.0
21	5.029333115	-0.7807937264	10.89974976	26.78385544	0.6407880187	-98.22412872	1.0
22	5.00946331	-0.7834335566	10.80484962	27.83625031	0.3562124372	-97.51356506	1.0
[Spine]
19	0	0	0.7457100153	40.88567734	87.80341339	30.97154045	1.0
20	0	0	0.7457100153	54.16130447	87.5607605	46.97994614	1.0
21	0	0	0.7457100153	85.30905151	88.17919159	77.59113312	1.0
22	0	0	0.7457100153	78.04890442	86.96135712	69.9065094	1.0
[Spine1]
19	0	0	2.140589952	-8.734268188	-1.627554178	1.414030075	1.0
20	0	0	2.140589952	-9.452867508	-1.187517881	2.01565218	1.0
21	0	0	2.140589952	-11.77720737	-1.386293173	1.950414538	1.0
22	0	0	2.140589952	-10.62670517	-0.5869429111	0.951693058	1.0
[Neck]
19	0	0	2.32246995	84.69999695	80.84359741	61.18808365	1.0
20	0	0	2.32246995	84.69999695	80.84359741	61.18808746	1.0
21	0	0	2.32246995	84.69999695	80.84359741	61.18809128	1.0
22	0	0	2.32246995	84.44508362	76.1627655	74.00140381	1.0
[Head]
19	0	-0.1818799973	1.409579992	-41.76007843	94.18379974	-24.77632904	1.0
20	0	-0.1818799973	1.409579992	-41.76008606	94.18379974	-24.77633667	1.0
21	0	-0.1818799973	1.409579992	-41.76008606	94.18379974	-24.77633667	1.0
22	0	-0.1818799973	1.409579992	-39.27294159	96.27583313	26.79245377	1.0
[LeftShoulder]
19	0.3668199778	0.02662999928	1.946700096	-14.13951111	0.2454176247	-11.01050854	1.0
20	0.3668199778	0.02662999928	1.946700096	-14.95847511	-0.8105767965	-11.21532822	1.0
21	0.3668199778	0.02662999928	1.946700096	-15.95163441	-1.240630627	-10.53186512	1.0
22	0.3668199778	0.02662999928	1.946700096	-11.58619308	-0.6839084029	-12.99971104	1.0
[LeftArm]
19	1.140689969	0	0	30.6571064	73.89141083	-24.38801575	1.0
20	1.140689969	0	0	36.16726685	78.10929871	-20.2948513	1.0
21	1.140689969	0	0	48.35318756	81.05480957	-6.515422344	1.0
22	1.140689969	0	0	34.34728622	80.16493225	-17.13834381	1.0
[LeftForeArm]
19	2.749800205	0	0	34.77147675	-32.09895325	-121.1191711	1.0
20	2.749800205	0	0	41.42876434	-34.35586548	-125.5369415	1.0
21	2.749800205	0	0	40.37499619	-33.21992874	-126.5986862	1.0
22	2.749800205	0	0	38.83477402	-31.61100388	-127.3219376	1.0
[LeftHand]
19	2.295179844	0	0	-17.72285843	-8.298519135	-20.87177467	1.0
20	2.295179844	0	0	-19.18630981	-7.903177261	-19.97106743	1.0
21	2.295179844	0	0	-19.57347679	-8.014953613	-19.70496559	1.0
22	2.295179844	0	0	-18.91519928	-10.61858845	-18.86612129	1.0
[RightShoulder]
19	-0.3601199985	0.02662999928	1.946700096	-1.695784569	-3.971527576	-167.0507507	1.0
20	-0.3601199985	0.02662999928	1.946700096	-0.2592423558	-3.444611311	-166.5934448	1.0
21	-0.3601199985	0.02662999928	1.946700096	-14.91424084	2.357425451	-166.4141693	1.0
22	-0.3601199985	0.02662999928	1.946700096	-10.49040604	1.364039183	-163.2172241	1.0
[RightArm]
19	-1.140689969	0	0	-164.0427094	-115.1534424	50.26967621	1.0
20	-1.140689969	0	0	-169.9354095	-116.9976044	59.63028336	1.0
21	-1.140689969	0	0	-157.0936127	-100.8746567	45.40415955	1.0
22	-1.140689969	0	0	-162.1066589	-105.0525208	48.64748383	1.0
[RightForeArm]
19	-2.749800205	0	0	64.82054138	43.64533234	-54.87496185	1.0
20	-2.749800205	0	0	72.08479309	44.83534622	-50.31959534	1.0
21	-2.749800205	0	0	68.54257965	43.00895309	-52.42323303	1.0
22	-2.749800205	0	0	72.30175781	43.47781372	-50.1136322	1.0
[RightHand]
19	-2.295179844	0	0	-9.29490757	18.99449158	-172.8602905	1.0
20	-2.295179844	0	0	-9.366872787	18.22109604	-172.8655243	1.0
21	-2.295179844	0	0	-7.075493336	20.33620453	-170.3883667	1.0
22	-2.295179844	0	0	-6.943552971	20.05566025	-170.5423584	1.0
[LeftUpLeg]
19	0.9094099998	0	0	-45.90127563	-113.0903702	-27.4334774	1.0
20	0.9094099998	0	0	-38.63015747	-115.844986	-57.15587234	1.0
21	0.9094099998	0	0	-42.39874268	-120.432373	-62.40506744	1.0
22	0.9094099998	0	0	-47.64448929	-123.855217	-57.91317368	1.0
[LeftLeg]
19	0	0	-4.498080254	68.70471954	-46.82770538	55.92041016	1.0
20	0	0	-4.498080254	77.30315399	-45.90486526	59.30799103	1.0
21	0	0	-4.498080254	78.40549469	-33.9764328	58.65843582	1.0
22	0	0	-4.498080254	71.84909058	-33.90272903	50.97041321	1.0
[LeftFoot]
19	0	0	-3.729400158	-43.40265656	-8.671251297	133.1936188	1.0
20	0	0	-3.729400158	-43.31442261	-5.048961639	136.4214783	1.0
21	0	0	-3.729400158	-43.24462509	0.3540546	142.7875061	1.0
22	0	0	-3.729400158	-45.48721313	1.460806847	140.1183929	1.0
[LeftToeBase]
19	0	-1.364109993	-0.5911099911	9.999999975e-007	0	0	1.0
20	0	-1.364109993	-0.5911099911	9.999999975e-007	0	0	1.0
21	0	-1.364109993	-0.5911099911	9.999999975e-007	0	0	1.0
22	0	-1.364109993	-0.5911099911	9.999999975e-007	0	0	1.0
[RightUpLeg]
19	-0.9094099998	0	0	-116.6929855	-115.5639496	51.65619659	1.0
20	-0.9094099998	0	0	-127.8767624	-116.6440506	41.31378555	1.0
21	-0.9094099998	0	0	-138.2787018	-118.1259308	39.69024658	1.0
22	-0.9094099998	0	0	-142.2460022	-117.9762573	38.89503479	1.0
[RightLeg]
19	0	0	-4.498080254	60.39736176	-71.21459961	58.27519989	1.0
20	0	0	-4.498080254	62.0888443	-76.67564392	74.45676422	1.0
21	0	0	-4.498080254	48.42976379	-82.1532135	96.7770462	1.0
22	0	0	-4.498080254	-12.25628662	-84.29428101	147.9620361	1.0
[RightFoot]
19	0	0	-3.729400158	-38.52362061	-27.37838936	80.90106201	1.0
20	0	0	-3.729400158	-38.49654007	-29.89214706	74.70976257	1.0
21	0	0	-3.729400158	-34.76369095	-30.12776375	67.8396759	1.0
22	0	0	-3.729400158	-32.45359802	-34.47191238	64.68418884	1.0
[RightToeBase]
19	0	-1.364109993	-0.5911099911	9.999999975e-007	0	0	1.0
20	0	-1.364109993	-0.5911099911	9.999999975e-007	0	0	1.0
21	0	-1.364109993	-0.5911099911	9.999999975e-007	0	0	1.0
22	0	-1.364109993	-0.5911099911	9.999999975e-007	0	0	1.0
[EndOfFile]
